<mxfile host="app.diagrams.net" modified="2023-06-01T00:15:34.521Z" agent="Mozilla/5.0 (Windows NT 10.0; Win64; x64) AppleWebKit/537.36 (KHTML, like Gecko) Chrome/113.0.0.0 Safari/537.36 Edg/113.0.1774.57" version="21.3.6" etag="uwP5gDDHjZQo87zSnQxP" type="gitlab">
  <diagram name="Page-1" id="34hXJyVNW9nXy-Q03ACs">
    <mxGraphModel>
      <root>
        <mxCell id="0" />
        <mxCell id="1" parent="0" />
      </root>
    </mxGraphModel>
  </diagram>
</mxfile>
